<?xml version="1.0" standalone="no"?>
<!DOCTYPE svg PUBLIC "-//W3C//DTD SVG 20010904//EN"
 "http://www.w3.org/TR/2001/REC-SVG-20010904/DTD/svg10.dtd">
<svg version="1.0" xmlns="http://www.w3.org/2000/svg"
 width="700.000000pt" height="700.000000pt" viewBox="0 0 700.000000 700.000000"
 preserveAspectRatio="xMidYMid meet">
<metadata>
Created by potrace 1.11, written by Peter Selinger 2001-2013
</metadata>
<g transform="translate(0.000000,700.000000) scale(0.100000,-0.100000)"
fill="#000000" stroke="none">
<path d="M0 4723 l0 -2278 33 36 c89 100 220 179 353 213 90 23 251 21 343 -4
205 -57 352 -178 444 -365 90 -184 99 -380 25 -569 -38 -97 -75 -154 -153
-232 -95 -95 -177 -143 -325 -190 -89 -28 -273 -22 -372 11 -110 37 -201 90
-279 165 l-69 65 0 -227 0 -228 27 0 c15 0 77 4 137 10 61 5 174 14 251 21 77
6 151 12 165 14 40 4 160 14 235 20 39 3 113 10 165 16 52 5 154 15 225 20 72
6 144 12 160 14 17 1 113 10 215 19 102 9 262 23 355 32 216 20 241 22 350 29
50 3 102 8 118 11 24 5 27 3 27 -20 0 -32 -18 -36 -230 -51 -79 -6 -374 -32
-450 -41 -25 -2 -76 -7 -115 -10 -38 -3 -88 -7 -110 -9 -58 -6 -378 -33 -530
-45 -71 -6 -161 -15 -200 -20 -38 -5 -115 -12 -170 -15 -55 -3 -118 -8 -140
-10 -22 -3 -119 -13 -215 -21 -96 -9 -186 -17 -200 -19 -14 -1 -35 -3 -47 -3
-22 -2 -23 -6 -23 -92 0 -49 3 -90 8 -90 4 0 79 7 167 16 88 8 187 17 220 19
33 3 110 9 170 15 61 6 214 19 340 30 127 11 266 25 310 30 118 15 132 14 138
-12 4 -12 5 -23 4 -25 -2 -1 -102 -11 -222 -23 -458 -42 -802 -73 -855 -76
-30 -2 -102 -8 -159 -14 -58 -5 -108 -10 -113 -10 -4 0 -8 -144 -8 -320 l0
-320 23 0 c12 0 62 5 112 10 50 5 128 11 175 14 47 4 164 13 260 22 96 9 191
18 210 19 19 2 64 6 100 9 36 3 144 13 240 21 283 25 383 34 600 54 113 11
268 25 345 31 77 7 156 14 175 16 19 2 72 6 118 9 l82 7 0 -26 c0 -15 -6 -28
-12 -31 -7 -2 -98 -11 -203 -19 -104 -8 -494 -42 -865 -75 -371 -33 -731 -65
-800 -71 -69 -5 -219 -19 -335 -30 -116 -11 -213 -20 -217 -20 -5 0 -8 -29 -8
-65 l0 -65 380 0 c230 0 380 4 380 9 0 6 19 12 43 15 35 4 426 39 587 52 180
15 411 35 443 39 34 5 37 3 37 -19 0 -30 4 -29 -250 -52 -102 -9 -196 -17
-210 -19 -14 -1 -72 -6 -130 -10 -58 -4 -107 -9 -109 -11 -2 -2 1308 -4 2912
-4 l2917 0 0 3500 0 3500 -2577 0 c-2353 0 -2585 -2 -2663 -17 -94 -18 -215
-71 -266 -116 -41 -35 -55 -89 -30 -116 21 -23 137 -51 256 -61 86 -7 182 -18
310 -35 52 -7 306 -30 490 -45 69 -5 204 -9 300 -10 96 0 190 -4 209 -10 19
-5 142 -12 275 -16 133 -3 286 -12 340 -20 55 -8 115 -14 133 -14 19 0 55 -6
81 -14 104 -31 185 -39 402 -42 124 -1 242 -7 263 -12 35 -9 37 -9 37 13 0 21
6 24 58 29 31 3 122 13 202 21 80 8 177 17 215 19 39 2 147 11 240 20 94 8
256 22 360 31 105 8 209 18 231 21 38 4 42 3 46 -21 3 -16 1 -25 -7 -25 -12 0
-749 -66 -830 -75 -109 -11 -157 -15 -230 -21 -163 -13 -239 -21 -205 -23 19
-1 53 -6 75 -12 84 -21 134 -26 139 -15 2 6 5 -16 5 -49 1 -33 6 -91 11 -129
6 -38 9 -71 6 -73 -2 -2 -20 6 -40 18 -37 22 -236 84 -316 99 -25 5 -76 16
-115 26 -42 10 -121 18 -195 19 -144 3 -256 20 -425 65 -203 53 -253 61 -465
70 -113 5 -236 14 -275 19 -38 6 -169 13 -289 16 -121 3 -222 8 -225 10 -3 1
-82 8 -176 14 -93 7 -220 16 -282 22 -61 6 -241 14 -400 19 -338 11 -667 36
-918 70 l-80 11 2 47 c1 26 4 65 8 87 3 22 9 59 12 83 3 23 9 45 15 48 16 10
128 36 238 54 l105 18 -301 1 -301 1 -8 -72 c-4 -40 -9 -129 -10 -198 -3 -157
-15 -190 -98 -265 -33 -30 -64 -55 -69 -55 -19 0 -72 33 -103 65 -63 62 -72
93 -78 275 -4 91 -9 182 -13 203 -6 33 -4 37 14 37 19 0 21 -8 27 -110 l8
-111 73 -74 c62 -63 74 -71 79 -55 3 11 32 43 64 72 l59 53 7 100 c3 55 9 108
11 118 5 15 -3 17 -65 17 l-71 0 0 -145 c0 -117 -3 -145 -14 -145 -19 0 -25
46 -22 178 l3 112 -124 0 -123 0 0 -2277z m2347 2261 c-3 -3 -12 -4 -19 -1 -8
3 -5 6 6 6 11 1 17 -2 13 -5z m91 -1 c-10 -2 -28 -2 -40 0 -13 2 -5 4 17 4 22
1 32 -1 23 -4z m4502 -68 c0 -19 -5 -25 -22 -25 -35 0 -1491 -130 -1508 -135
-8 -2 -58 -6 -110 -9 -103 -6 -401 -35 -439 -42 -22 -5 -23 -7 -16 -70 6 -61
5 -66 -12 -60 -37 11 -148 16 -133 6 8 -5 41 -10 73 -10 31 0 57 -4 57 -10 0
-14 -187 -13 -196 1 -5 8 1 10 20 7 28 -6 31 -1 16 22 -8 13 -13 13 -39 -1
-20 -12 -39 -15 -62 -10 -33 7 -33 7 -9 14 21 6 22 9 10 17 -8 5 -22 9 -30 9
-10 0 -8 -3 5 -9 16 -7 12 -9 -20 -10 -32 -1 -36 -3 -20 -10 19 -8 18 -9 -4
-9 -19 -1 -22 3 -18 19 3 13 0 20 -10 20 -8 0 -12 -3 -10 -7 3 -5 -36 -6 -86
-4 -73 2 -94 7 -104 21 -11 15 -19 16 -63 7 -34 -7 -50 -15 -51 -26 -1 -13 -2
-13 -6 2 -2 9 -9 18 -14 18 -19 3 -24 5 -38 13 -9 6 -12 5 -8 -2 8 -12 -59 -6
-107 9 -16 5 -44 9 -63 9 -21 0 -36 6 -39 15 -4 8 -10 15 -16 15 -5 0 -7 -4
-4 -9 6 -9 -54 -25 -62 -16 -3 3 2 5 11 5 23 0 22 20 0 21 -10 1 -33 3 -50 5
-42 5 -42 -3 0 -15 31 -9 31 -9 5 -10 -31 -1 -38 -17 -10 -24 15 -4 15 -5 0
-6 -9 0 -20 4 -23 9 -3 6 -19 10 -36 10 -16 0 -29 5 -29 11 0 6 -6 9 -12 7 -7
-3 -19 1 -26 8 -9 10 -20 11 -38 3 -22 -8 -25 -7 -20 6 3 9 2 13 -4 10 -6 -3
-10 -13 -10 -21 0 -17 -10 -17 -33 0 -18 14 -18 15 0 25 13 8 -20 10 -125 8
-129 -2 -142 0 -142 16 0 9 -4 17 -10 17 -5 0 -10 -3 -10 -7 0 -5 -131 -8
-291 -8 -160 0 -293 -3 -295 -7 -5 -8 -44 2 -44 11 0 9 140 16 348 16 94 0
172 3 172 6 0 8 390 23 549 21 68 0 160 -8 205 -17 44 -9 103 -20 129 -25 60
-12 174 -13 181 -2 3 5 157 12 343 16 282 6 444 15 728 41 17 1 72 6 124 10
51 4 407 35 790 70 383 34 711 63 729 64 28 1 32 -2 32 -24z m-4690 -175 c0
-5 -2 -10 -4 -10 -3 0 -8 5 -11 10 -3 6 -1 10 4 10 6 0 11 -4 11 -10z m153 3
c-18 -2 -48 -2 -65 0 -18 2 -4 4 32 4 36 0 50 -2 33 -4z m92 -3 c3 -5 -1 -10
-9 -10 -8 0 -18 5 -21 10 -3 6 1 10 9 10 8 0 18 -4 21 -10z m45 0 c0 -5 -4
-10 -10 -10 -5 0 -10 5 -10 10 0 6 5 10 10 10 6 0 10 -4 10 -10z m2336 -67
c-10 -10 -19 5 -10 18 6 11 8 11 12 0 2 -7 1 -15 -2 -18z m-1629 11 c-3 -3
-12 -4 -19 -1 -8 3 -5 6 6 6 11 1 17 -2 13 -5z m793 -60 c55 -6 61 -8 40 -17
-37 -14 -131 -9 -144 8 -6 7 -20 16 -31 18 -23 5 41 1 135 -9z m185 -8 c-16
-7 -37 -10 -45 -7 -17 6 19 19 55 20 14 0 12 -4 -10 -13z m-498 -22 c-3 -3
-12 -4 -19 -1 -8 3 -5 6 6 6 11 1 17 -2 13 -5z m53 -4 c18 -12 2 -12 -25 0
-13 6 -15 9 -5 9 8 0 22 -4 30 -9z m1130 1 c0 -6 -4 -13 -10 -16 -5 -3 -10 1
-10 9 0 9 5 16 10 16 6 0 10 -4 10 -9z m-4183 -57 c2 -7 -8 -9 -28 -6 -22 3
-27 7 -18 13 17 11 41 7 46 -7z m50 10 c-3 -3 -12 -4 -19 -1 -8 3 -5 6 6 6 11
1 17 -2 13 -5z m123 -28 l0 -24 185 2 c102 1 185 -1 185 -5 0 -3 53 -5 118 -4
68 1 100 -1 77 -5 -37 -7 -38 -7 -10 -10 17 -2 42 -2 57 -1 14 1 29 -3 33 -8
3 -7 -3 -11 -17 -12 -21 0 -20 -2 6 -11 20 -7 35 -7 45 -1 11 7 46 6 110 -5
72 -12 98 -13 112 -4 23 15 103 16 94 2 -3 -5 -16 -10 -28 -11 -21 0 -21 -1
-2 -8 11 -5 22 -4 23 0 4 11 29 12 35 2 2 -5 2 -2 0 6 -3 11 8 12 57 7 33 -3
87 -9 120 -12 70 -8 79 -21 18 -27 -35 -3 -30 -4 22 -6 71 -3 112 -12 111 -23
-2 -23 0 -27 15 -21 13 5 13 7 2 14 -8 6 3 9 32 11 100 4 148 3 138 -3 -5 -3
1 -10 14 -14 19 -6 20 -8 6 -12 -21 -5 -24 -23 -5 -24 6 0 -4 -7 -23 -15 l-35
-14 35 6 c52 9 76 24 59 35 -11 7 -9 9 6 10 11 1 24 1 28 0 5 -1 6 3 2 9 -4 6
5 10 22 11 15 0 42 2 58 5 17 2 44 6 62 8 21 3 33 0 37 -10 4 -9 21 -14 56
-14 27 0 50 -3 50 -7 0 -11 74 -13 80 -3 6 9 143 -12 184 -29 16 -6 34 -10 40
-8 6 2 19 -4 29 -13 17 -17 16 -17 -10 -13 -22 3 -25 2 -12 -6 10 -7 32 -7 60
-2 38 8 40 9 13 10 -38 1 -71 31 -35 31 14 0 20 -4 15 -12 -4 -7 -3 -8 5 -4 6
4 35 3 64 -3 101 -19 140 -21 211 -6 87 18 85 18 59 0 -12 -9 -26 -15 -30 -14
-19 3 -43 -2 -43 -9 0 -8 38 -10 180 -13 33 -1 44 -3 26 -6 -18 -3 -25 -8 -18
-12 7 -4 26 -5 43 -3 22 3 27 7 18 13 -11 7 -10 9 4 9 9 0 17 -4 17 -10 0 -5
7 -10 16 -10 8 0 13 4 10 9 -3 4 14 2 37 -5 138 -41 333 -66 407 -52 63 12
393 3 398 -11 2 -6 12 -11 22 -11 20 0 55 -39 65 -71 12 -37 -46 -73 -164
-104 -213 -54 -417 -74 -557 -54 -49 7 -127 12 -174 11 -85 -2 -243 -26 -290
-43 -14 -5 -86 -14 -160 -19 -153 -10 -353 -32 -515 -55 -60 -8 -166 -20 -235
-25 -69 -5 -152 -14 -185 -20 -33 -5 -87 -14 -120 -20 -33 -5 -91 -17 -130
-25 -38 -8 -106 -21 -150 -29 -44 -8 -87 -17 -95 -20 -24 -9 -217 -28 -330
-31 -58 -2 -163 -6 -233 -9 -71 -2 -131 -7 -134 -10 -3 -3 -13 -1 -23 4 -10 5
-20 7 -23 3 -4 -3 -29 -5 -57 -4 -33 0 -50 -3 -50 -12 0 -8 -4 -7 -11 3 -8 11
-12 12 -16 3 -5 -15 -33 -18 -33 -4 0 5 6 12 13 15 6 3 0 3 -15 0 -16 -4 -28
-2 -28 3 0 6 -58 8 -146 5 l-146 -4 7 23 c9 30 2 25 58 37 26 5 47 6 47 1 0
-5 -13 -9 -29 -9 -17 0 -33 -5 -37 -11 -5 -8 4 -10 32 -5 22 4 59 9 84 12 25
4 53 13 62 21 12 10 41 16 86 18 38 1 75 6 82 10 7 4 43 7 79 7 37 -1 60 2 53
7 -10 6 -9 11 4 22 13 11 18 11 21 2 3 -7 11 -13 18 -13 7 0 16 6 19 13 3 8 8
7 16 -5 6 -10 21 -17 33 -17 17 1 18 2 5 6 -32 8 -19 18 29 21 25 2 53 7 62
11 9 5 25 7 36 5 11 -2 32 -5 48 -8 15 -2 25 -1 22 3 -6 10 105 28 190 30 80
2 114 9 96 21 -15 9 116 30 183 29 39 -1 148 6 258 16 10 1 21 4 24 8 4 4 17
7 28 7 12 0 34 7 50 15 16 9 36 13 43 11 7 -3 13 0 14 7 0 9 2 9 5 0 4 -8 14
-9 35 -3 34 10 39 3 7 -10 -16 -7 0 -8 52 -4 41 3 89 11 105 18 44 20 84 30
65 17 -24 -17 -7 -13 35 9 43 22 80 26 90 10 3 -5 12 -10 18 -10 7 0 6 4 -3
10 -22 14 12 24 60 17 22 -3 40 -1 40 4 0 5 14 9 30 9 17 0 30 -4 30 -10 0 -5
17 -9 38 -9 34 2 35 2 7 7 -26 4 -28 5 -10 12 16 7 11 9 -20 10 -31 1 -35 3
-20 9 11 5 32 5 47 0 14 -4 29 -5 32 -1 11 10 6 22 -9 22 -8 0 -15 5 -15 11 0
6 -7 9 -14 6 -10 -4 -13 -1 -10 8 4 10 0 12 -15 8 -11 -3 -28 -2 -37 1 -13 5
-14 9 -4 22 7 8 19 13 26 10 7 -3 16 -1 19 4 3 5 -17 12 -45 16 -34 4 -47 10
-38 15 11 7 11 9 -1 9 -8 0 -20 8 -27 18 -7 9 -14 13 -14 7 0 -6 -33 -10 -80
-9 -44 1 -77 -2 -75 -6 3 -5 -3 -6 -14 -3 -10 3 -22 0 -25 -6 -4 -5 10 -14 31
-20 50 -14 53 -14 47 4 -5 12 4 15 45 15 28 0 51 -4 51 -9 0 -5 8 -12 18 -14
11 -3 7 -5 -10 -6 -14 0 -34 -4 -44 -8 -12 -4 -15 -3 -10 5 9 15 7 15 -44 -3
-50 -18 -94 -21 -70 -5 13 8 12 10 -2 10 -10 0 -18 -7 -18 -15 0 -8 -6 -15
-12 -15 -7 0 -24 -3 -38 -5 -19 -4 -18 -2 8 10 29 14 31 17 18 30 -19 19 -56
19 -56 1 0 -8 6 -17 13 -19 7 -4 6 -6 -5 -6 -9 -1 -25 -4 -35 -7 -17 -5 -17
-5 0 6 14 9 16 15 6 26 -9 11 -15 11 -25 3 -7 -6 -18 -8 -24 -4 -5 3 -10 1
-10 -6 0 -8 -11 -10 -33 -6 -40 6 -89 -2 -81 -14 3 -5 -2 -9 -11 -9 -9 0 -14
-4 -11 -8 2 -4 -3 -9 -12 -9 -31 -3 -141 -42 -167 -59 -15 -10 -61 -26 -104
-35 -42 -10 -96 -23 -121 -29 -107 -27 -321 -62 -615 -100 -49 -7 -99 -16
-110 -20 -11 -5 -47 -11 -80 -15 -33 -3 -62 -10 -63 -16 -3 -6 -9 -6 -15 -1
-10 7 -201 -26 -363 -63 l-31 -7 -2 70 -2 70 48 7 c26 4 91 18 143 32 52 14
124 31 160 37 138 24 275 140 224 190 -8 8 -14 21 -14 30 0 8 -17 28 -37 45
-27 22 -33 31 -20 31 13 0 9 8 -16 30 -19 17 -41 30 -50 30 -8 0 -17 9 -20 20
-4 15 1 22 20 27 15 3 34 1 45 -6 11 -7 18 -7 18 -1 0 5 7 10 17 10 9 0 14 2
12 5 -6 6 -134 17 -181 15 -21 0 -38 3 -38 8 0 6 -48 10 -107 10 -194 0 -193
0 -193 22 0 17 7 20 41 20 26 0 38 4 34 11 -4 6 -21 9 -38 7 -28 -3 -31 0 -34
30 -4 29 -2 32 24 33 15 0 48 1 73 3 25 2 57 -1 73 -5 19 -5 25 -4 21 3 -5 7
-1 9 9 5 10 -3 17 -2 17 3 0 5 -8 11 -17 13 -14 4 -12 5 5 6 17 1 22 -4 22
-23z m300 10 c0 -3 -4 -8 -10 -11 -5 -3 -10 -1 -10 4 0 6 5 11 10 11 6 0 10
-2 10 -4z m180 -6 c0 -5 -8 -10 -17 -10 -15 0 -16 2 -3 10 19 12 20 12 20 0z
m195 -29 c3 -6 34 -7 69 -4 41 3 66 1 70 -6 10 -16 55 -13 72 4 9 8 25 15 37
14 21 0 21 -1 2 -9 -16 -7 -12 -9 20 -10 22 -1 49 -6 60 -11 14 -6 4 -8 -38
-6 -31 1 -57 0 -57 -3 0 -3 -34 -6 -75 -7 -47 -2 -74 1 -70 7 3 6 -3 10 -15
10 -13 0 -19 -4 -14 -12 5 -8 0 -9 -17 -5 -13 4 -30 7 -37 7 -7 0 -10 5 -7 10
3 6 1 11 -4 11 -26 3 -30 4 -37 12 -4 4 2 7 14 7 11 0 23 -4 27 -9z m602 -7
c-3 -3 -12 -4 -19 -1 -8 3 -5 6 6 6 11 1 17 -2 13 -5z m113 -14 c0 -5 -5 -10
-11 -10 -5 0 -7 5 -4 10 3 6 8 10 11 10 2 0 4 -4 4 -10z m-1856 -47 c12 -110
-8 -169 -82 -246 -31 -31 -64 -60 -74 -63 -41 -13 -160 90 -178 154 -11 41
-12 148 -2 175 7 16 11 15 53 -11 24 -16 61 -48 80 -70 l36 -42 14 26 c17 33
116 124 134 124 8 0 15 -17 19 -47z m5776 -13 c0 -12 -8 -21 -22 -24 -13 -3
-185 -19 -383 -36 -198 -17 -381 -33 -407 -37 -47 -5 -48 -5 -48 21 0 22 5 26
28 27 15 0 185 15 377 33 439 42 455 42 455 16z m-3982 -17 c-10 -2 -26 -2
-35 0 -10 3 -2 5 17 5 19 0 27 -2 18 -5z m65 -10 c-7 -2 -21 -2 -30 0 -10 3
-4 5 12 5 17 0 24 -2 18 -5z m264 -19 c-3 -3 -12 -4 -19 -1 -8 3 -5 6 6 6 11
1 17 -2 13 -5z m329 -7 c4 -4 -23 -7 -60 -7 -43 0 -65 4 -61 10 7 11 110 8
121 -3z m-389 -3 c-3 -3 -12 -4 -19 -1 -8 3 -5 6 6 6 11 1 17 -2 13 -5z m456
-1 c-7 -2 -19 -2 -25 0 -7 3 -2 5 12 5 14 0 19 -2 13 -5z m454 -13 c25 -8 -85
-4 -152 4 -11 2 -56 0 -100 -4 -70 -5 -77 -8 -55 -17 15 -7 19 -12 10 -12 -17
-1 -40 17 -40 31 0 17 279 16 337 -2z m-387 0 c0 -5 -7 -10 -16 -10 -8 0 -12
5 -9 10 3 6 10 10 16 10 5 0 9 -4 9 -10z m37 -6 c-3 -3 -12 -4 -19 -1 -8 3 -5
6 6 6 11 1 17 -2 13 -5z m130 -20 c-3 -3 -12 -4 -19 -1 -8 3 -5 6 6 6 11 1 17
-2 13 -5z m148 -23 c3 -6 -10 -7 -32 -4 -50 8 -55 13 -10 13 20 0 38 -4 42 -9z
m315 -3 c0 -5 -24 -8 -52 -7 -40 1 -47 3 -28 8 32 9 80 8 80 -1z m173 -5 c-7
-2 -21 -2 -30 0 -10 3 -4 5 12 5 17 0 24 -2 18 -5z m-253 -23 c0 -5 -2 -10 -4
-10 -3 0 -8 5 -11 10 -3 6 -1 10 4 10 6 0 11 -4 11 -10z m50 6 c0 -9 -30 -14
-35 -6 -4 6 3 10 14 10 12 0 21 -2 21 -4z m3120 -31 c0 -19 -5 -25 -22 -25
-13 0 -120 -9 -238 -20 -267 -25 -250 -25 -250 3 0 23 3 23 223 44 305 28 287
28 287 -2z m-2900 -1 c0 -2 -12 -4 -26 -4 -14 0 -23 4 -20 9 6 8 46 4 46 -5z
m493 -11 c-7 -2 -21 -2 -30 0 -10 3 -4 5 12 5 17 0 24 -2 18 -5z m-393 -13
c13 -9 13 -10 0 -9 -8 1 -26 5 -40 9 l-25 8 25 1 c14 0 32 -4 40 -9z m65 -10
c-3 -5 -11 -10 -16 -10 -6 0 -7 5 -4 10 3 6 11 10 16 10 6 0 7 -4 4 -10z m368
3 c-7 -2 -19 -2 -25 0 -7 3 -2 5 12 5 14 0 19 -2 13 -5z m-210 -10 c-18 -2
-48 -2 -65 0 -18 2 -4 4 32 4 36 0 50 -2 33 -4z m1755 -31 c2 -12 2 -22 -1
-22 -2 0 -129 -11 -281 -25 -153 -14 -279 -25 -282 -25 -11 0 -3 50 9 51 54 2
181 13 342 28 105 10 195 17 200 16 6 -1 11 -11 13 -23z m-5483 -80 c0 -62 -5
-86 -25 -125 -24 -47 -99 -127 -120 -127 -6 0 -10 -67 -10 -190 0 -178 -1
-190 -18 -190 -18 0 -19 11 -17 184 l3 185 -38 25 c-21 13 -54 45 -74 69 -31
38 -37 54 -43 110 -7 78 2 137 22 137 22 0 118 -83 134 -115 10 -21 16 -25 20
-15 23 57 136 159 155 140 6 -6 11 -45 11 -88z m272 2 c18 -14 33 -32 33 -40
0 -15 -58 -74 -72 -74 -5 0 -8 32 -8 70 0 39 3 70 7 70 3 0 21 -11 40 -26z
m2180 20 c-3 -3 -12 -4 -19 -1 -8 3 -5 6 6 6 11 1 17 -2 13 -5z m-67 -14 c0
-5 -4 -10 -9 -10 -6 0 -13 5 -16 10 -3 6 1 10 9 10 9 0 16 -4 16 -10z m-406
-6 c22 -9 10 -24 -20 -24 -21 0 -23 2 -12 15 16 17 13 16 32 9z m442 -15 c3
-5 -11 -9 -30 -9 -45 0 -55 16 -10 17 19 1 37 -3 40 -8z m-503 -26 c-7 -2 -21
-2 -30 0 -10 3 -4 5 12 5 17 0 24 -2 18 -5z m587 -3 c0 -5 -12 -10 -27 -10
-22 0 -25 2 -13 10 20 13 40 13 40 0z m3810 -25 c0 -17 -6 -25 -17 -25 -26 0
-1363 -119 -1398 -125 -16 -2 -70 -7 -120 -10 -123 -8 -254 -23 -350 -42 -44
-8 -109 -21 -145 -28 -87 -17 -236 -62 -285 -85 -22 -11 -62 -24 -90 -29 -27
-6 -85 -17 -128 -26 -43 -8 -90 -15 -105 -15 -26 -1 -25 -2 12 -22 38 -20 39
-21 20 -35 -18 -14 -17 -15 16 -9 19 4 54 9 78 13 23 3 42 10 42 14 0 16 58
10 64 -6 5 -14 -15 -20 -51 -16 -7 1 -13 -3 -13 -9 0 -5 3 -10 8 -11 4 0 25
-2 47 -3 22 -2 32 -1 22 1 -17 4 -16 6 4 24 24 21 44 24 54 9 3 -5 -3 -10 -14
-10 -23 0 -28 -16 -8 -23 25 -9 -5 -21 -63 -25 -50 -4 -60 -2 -60 12 0 18 -4
19 -49 10 -41 -8 -40 -24 2 -25 23 0 14 -5 -33 -15 -36 -8 -79 -15 -96 -17
-17 -2 -36 -7 -42 -11 -7 -4 -12 -1 -12 9 0 11 -6 14 -23 10 -21 -6 -74 3
-122 20 -18 6 -18 5 -2 -5 36 -23 18 -33 -54 -27 -91 7 -101 16 -34 30 11 3 1
3 -22 1 -34 -3 -41 -1 -37 11 4 8 1 15 -5 15 -6 0 -11 -8 -11 -17 0 -13 -8
-18 -30 -18 -16 0 -30 3 -30 8 0 4 -7 7 -15 7 -8 0 -12 -6 -9 -14 4 -9 24 -16
52 -19 27 -2 9 -4 -42 -5 -74 -2 -87 -4 -82 -17 5 -13 2 -14 -16 -4 -19 10
-20 9 -15 -10 3 -14 0 -21 -9 -21 -8 0 -14 -4 -14 -9 0 -5 -16 -4 -36 2 -30 9
-33 12 -18 18 14 6 15 8 4 9 -8 1 8 8 35 17 28 8 58 22 67 30 14 13 20 13 33
3 8 -7 15 -10 15 -6 0 3 0 9 0 13 0 4 -11 8 -25 10 -14 2 -25 -1 -25 -6 0 -16
-42 -25 -50 -11 -5 8 -15 10 -26 5 -18 -7 -18 -8 1 -15 18 -7 17 -9 -10 -15
-16 -4 -37 -15 -46 -24 -14 -15 -14 -17 0 -28 23 -17 8 -25 -51 -29 -48 -3
-49 -2 -15 5 63 13 56 24 -11 17 -44 -5 -62 -4 -57 3 3 6 18 12 33 12 24 2 25
2 4 6 -13 3 -34 -3 -47 -11 -26 -17 -49 -21 -41 -7 3 5 -1 12 -10 15 -25 9
-54 7 -54 -5 0 -5 -4 -8 -9 -4 -5 3 -13 0 -17 -6 -5 -8 5 -10 34 -7 46 4 46
-4 0 -26 -36 -18 -52 -20 -43 -6 3 6 -1 10 -10 10 -8 0 -18 -7 -21 -15 -4 -8
-11 -15 -16 -15 -7 0 -7 4 0 13 8 9 0 12 -34 14 -24 1 -46 -3 -49 -8 -4 -5
-14 -9 -23 -8 -11 0 -12 3 -4 6 6 2 12 11 12 19 0 8 -6 11 -15 8 -8 -4 -15
-12 -15 -20 0 -8 -2 -14 -4 -14 -2 0 -12 -3 -22 -7 -12 -4 -15 -3 -10 5 5 8 0
12 -13 12 -12 0 -21 -4 -21 -9 0 -5 -20 -11 -44 -12 -24 -2 -42 -1 -40 2 11
18 -77 30 -238 33 -47 0 -85 -1 -82 -3 11 -12 -20 -27 -46 -23 -23 3 -30 9
-25 20 4 12 -1 13 -25 8 -19 -3 -29 -2 -25 4 3 6 1 10 -4 10 -6 0 -11 -6 -11
-14 0 -16 -37 -28 -46 -15 -3 5 -14 9 -25 9 -11 0 -17 4 -14 10 3 5 -6 12 -20
16 -14 3 -25 10 -25 15 0 5 -5 9 -11 9 -5 0 -7 -4 -4 -10 4 -6 -1 -7 -12 -3
-10 3 -15 2 -10 -2 13 -15 -55 -31 -98 -24 -25 5 -45 3 -54 -4 -12 -9 -13 -9
-7 1 6 10 1 11 -20 6 -19 -5 -25 -4 -20 5 5 7 -2 11 -21 11 -22 0 -25 2 -13
10 13 9 13 10 0 10 -9 0 -21 -5 -27 -11 -7 -7 -15 -6 -26 5 -9 9 -25 16 -37
16 -12 0 -19 4 -15 9 3 6 -4 19 -16 29 l-21 20 41 7 c23 4 43 10 46 15 3 4 29
11 58 15 28 4 57 11 62 15 20 14 191 49 345 70 41 6 82 13 90 16 8 3 67 12
130 19 63 8 147 21 185 30 66 14 141 29 280 54 132 24 194 33 290 41 91 7 157
20 255 48 76 22 216 34 261 22 54 -15 312 -29 320 -17 3 4 19 5 35 2 19 -4 24
-3 16 3 -8 5 34 13 120 21 73 7 153 16 178 22 25 5 104 21 175 35 72 14 134
29 139 35 17 16 23 10 29 -32 3 -22 7 -42 9 -45 6 -5 194 10 1048 86 415 37
767 68 783 69 22 1 27 -3 27 -24z m-4467 8 c3 -5 -9 -9 -26 -10 -24 -2 -28 0
-17 7 18 12 37 13 43 3z m490 0 c-7 -2 -19 -2 -25 0 -7 3 -2 5 12 5 14 0 19
-2 13 -5z m40 -20 c-7 -2 -21 -2 -30 0 -10 3 -4 5 12 5 17 0 24 -2 18 -5z
m-246 -39 c-3 -3 -12 -4 -19 -1 -8 3 -5 6 6 6 11 1 17 -2 13 -5z m-47 -14 c0
-5 -10 -10 -22 -9 -22 0 -22 1 -3 9 11 5 21 9 23 9 1 1 2 -3 2 -9z m-225 -30
c3 -5 -3 -10 -13 -10 -11 0 -35 -3 -53 -6 -24 -5 -31 -3 -24 4 6 6 24 12 40
15 17 2 33 5 37 6 4 0 10 -3 13 -9z m-615 -63 c0 -7 -13 -13 -31 -13 -20 -1
-27 1 -18 6 7 5 16 7 20 4 4 -2 10 0 14 6 8 14 15 13 15 -3z m37 -13 c-3 -3
-12 -4 -19 -1 -8 3 -5 6 6 6 11 1 17 -2 13 -5z m4691 -82 c2 -12 -1 -22 -6
-22 -14 0 -1022 -90 -1035 -93 -7 -1 -12 9 -12 23 0 21 5 25 35 28 19 2 249
23 510 47 261 23 482 42 490 41 8 0 16 -11 18 -24z m-5553 -142 c4 -6 -6 -10
-22 -10 -22 0 -25 2 -13 10 19 12 27 12 35 0z m585 0 c0 -5 -2 -10 -4 -10 -3
0 -8 5 -11 10 -3 6 -1 10 4 10 6 0 11 -4 11 -10z m-697 -17 c-7 -2 -19 -2 -25
0 -7 3 -2 5 12 5 14 0 19 -2 13 -5z m3507 -1 c0 -5 -6 -9 -12 -10 -7 0 -24 -4
-37 -8 -17 -5 -22 -4 -17 5 4 6 11 9 16 6 5 -3 11 -1 15 5 7 12 35 13 35 2z
m-3550 -6 c0 -2 -7 -6 -15 -10 -8 -3 -15 -1 -15 4 0 6 7 10 15 10 8 0 15 -2
15 -4z m540 -6 c-8 -5 -31 -9 -50 -9 -32 1 -33 2 -10 9 14 4 36 8 50 9 20 1
22 -1 10 -9z m3420 -20 c0 -5 -12 -10 -27 -10 -16 0 -34 -4 -42 -9 -11 -7 -10
-11 5 -20 15 -8 0 -10 -66 -10 -47 1 -94 -1 -105 -4 -11 -2 -14 -2 -7 0 8 3
12 13 9 24 -4 16 0 19 25 19 17 0 27 -4 23 -10 -4 -6 7 -8 32 -4 21 3 40 10
43 14 3 5 28 10 55 13 28 2 51 4 53 5 1 1 2 -2 2 -8z m154 -6 c5 -13 1 -14
-24 -9 -20 4 -30 3 -30 -5 0 -14 -21 -9 -23 5 -2 8 18 15 64 24 4 0 10 -6 13
-15z m-3897 -20 c-3 -3 -12 -4 -19 -1 -8 3 -5 6 6 6 11 1 17 -2 13 -5z m3753
-4 c-34 -11 -60 -11 -35 0 11 5 29 8 40 8 16 0 15 -2 -5 -8z m43 -27 c-7 -2
-19 -2 -25 0 -7 3 -2 5 12 5 14 0 19 -2 13 -5z m1177 -16 c0 -23 -1 -23 -261
-46 -143 -13 -262 -21 -263 -19 -2 1 -7 13 -10 26 -7 21 -5 22 46 23 29 0 136
9 238 19 257 25 250 25 250 -3z m-1235 4 c6 -11 -90 -9 -101 2 -4 4 16 7 44 7
28 0 53 -4 57 -9z m52 -7 c-3 -3 -12 -4 -19 -1 -8 3 -5 6 6 6 11 1 17 -2 13
-5z m-737 -13 c0 -4 11 -6 25 -3 15 2 25 0 25 -7 0 -15 -31 -14 -71 4 -34 14
-34 14 -6 15 15 0 27 -4 27 -9z m247 3 c-3 -3 -12 -4 -19 -1 -8 3 -5 6 6 6 11
1 17 -2 13 -5z m180 0 c-3 -3 -12 -4 -19 -1 -8 3 -5 6 6 6 11 1 17 -2 13 -5z
m99 -5 c3 -6 18 -8 33 -5 17 5 21 4 12 -2 -11 -8 -11 -11 0 -16 8 -3 -2 -3
-21 0 -19 4 -36 10 -38 15 -2 5 -10 2 -19 -6 -9 -10 -24 -13 -37 -10 -17 5
-18 4 -6 -5 12 -10 10 -11 -10 -6 -14 3 -29 6 -35 6 -9 1 89 36 107 39 4 1 10
-4 14 -10z m-856 -29 c0 -6 -7 -13 -15 -16 -8 -4 -13 -9 -11 -13 8 -12 -31 -7
-43 6 -9 10 -5 13 21 14 28 0 30 2 13 9 -18 8 -17 9 8 9 15 1 27 -4 27 -9z
m128 1 c10 -6 9 -10 -7 -14 -12 -3 -21 0 -21 6 0 7 -6 5 -13 -4 -12 -16 -77
-22 -77 -7 0 4 5 8 11 8 5 0 7 5 4 10 -8 12 84 13 103 1z m102 -16 c0 -1 -8
-9 -17 -16 -9 -8 -14 -9 -10 -2 5 8 -4 10 -30 8 -21 -1 -26 0 -10 2 15 2 27 8
27 13 0 4 9 6 20 3 11 -3 20 -7 20 -8z m159 -1 c8 -7 -54 -2 -79 6 -17 6 -9 7
25 3 28 -3 52 -7 54 -9z m454 -5 c-6 -6 -30 -9 -54 -6 l-44 4 48 1 c28 1 47 7
47 14 0 6 3 8 7 5 4 -4 2 -12 -4 -18z m-296 5 c-3 -3 -12 -4 -19 -1 -8 3 -5 6
6 6 11 1 17 -2 13 -5z m183 -10 c0 -2 -9 -4 -21 -4 -11 0 -18 4 -14 10 5 8 35
3 35 -6z m-320 -25 c60 -7 58 -8 -25 -4 -49 2 -101 8 -115 14 -20 9 -16 10 25
5 28 -4 79 -10 115 -15z m270 11 c0 -5 -21 -10 -47 -10 -27 0 -59 -3 -73 -7
-14 -3 -22 -3 -18 1 6 7 81 22 121 25 9 0 17 -3 17 -9z m-2056 -13 c-3 -9 -17
-11 -42 -9 -26 4 -32 7 -19 11 35 13 67 11 61 -2z m1236 -3 c0 -2 -9 -4 -20
-4 -11 0 -20 4 -20 9 0 5 9 7 20 4 11 -3 20 -7 20 -9z m-270 -19 c0 -9 -6 -12
-16 -8 -13 5 -13 7 -2 14 17 11 18 11 18 -6z m53 8 c-7 -2 -21 -2 -30 0 -10 3
-4 5 12 5 17 0 24 -2 18 -5z m874 1 c-3 -3 -12 -4 -19 -1 -8 3 -5 6 6 6 11 1
17 -2 13 -5z m-1447 -24 c-8 -5 -19 -10 -25 -10 -5 0 -3 5 5 10 8 5 20 10 25
10 6 0 3 -5 -5 -10z m-70 -10 c-20 -13 -40 -13 -40 0 0 6 12 10 28 10 21 0 24
-2 12 -10z m117 4 c-3 -3 -12 -4 -19 -1 -8 3 -5 6 6 6 11 1 17 -2 13 -5z m-30
-20 c-3 -3 -12 -4 -19 -1 -8 3 -5 6 6 6 11 1 17 -2 13 -5z m3983 -74 l0 -60
-38 0 c-22 0 -73 -3 -115 -6 l-77 -7 0 -84 0 -84 30 22 c39 29 108 29 149 0
46 -33 56 -77 56 -241 0 -140 -1 -147 -27 -192 -80 -135 -263 -127 -322 14
-26 60 -21 84 15 92 62 12 78 8 85 -21 15 -63 60 -80 108 -42 26 20 26 22 26
148 0 139 -10 171 -55 171 -26 0 -65 -42 -65 -70 0 -20 -27 -30 -82 -30 l-38
0 0 215 c0 118 1 216 3 216 1 1 70 5 152 9 83 3 160 7 173 8 21 2 22 -2 22
-58z m-512 18 c7 -7 12 -40 12 -78 0 -68 -10 -90 -42 -90 -25 0 -38 31 -38 94
0 71 34 108 68 74z m-151 -50 l18 -53 3 53 c5 85 22 59 22 -33 0 -99 -17 -114
-42 -37 l-16 47 -1 -47 c-1 -36 -5 -48 -16 -48 -12 0 -15 16 -15 85 0 103 18
115 47 33z m223 -98 c0 -5 -4 -10 -10 -10 -5 0 -10 5 -10 10 0 6 5 10 10 10 6
0 10 -4 10 -10z m-2744 -28 c9 -13 15 -14 27 -4 18 16 138 -7 161 -31 24 -24
20 -34 -31 -86 -52 -52 -84 -66 -178 -76 -33 -4 -73 -11 -90 -15 -16 -5 -79
-14 -140 -19 -238 -22 -334 -32 -440 -45 -60 -8 -130 -15 -155 -15 -25 -1 -70
-6 -100 -10 -30 -5 -100 -12 -155 -15 -55 -4 -127 -11 -160 -16 -335 -53 -325
-53 -468 -34 -28 3 -36 1 -31 -7 5 -8 2 -10 -9 -6 -9 3 -18 0 -21 -8 -4 -11 0
-12 20 -5 33 13 134 13 114 1 -14 -10 -64 -18 -147 -25 -23 -2 -55 -10 -71
-18 -19 -10 -49 -13 -93 -10 l-64 5 54 14 c29 7 61 12 69 11 10 -2 18 5 20 17
2 12 0 16 -5 9 -4 -6 -37 -14 -73 -18 -36 -4 -94 -14 -129 -22 -57 -13 -65
-13 -73 -1 -5 10 -16 13 -30 9 -13 -3 -19 -1 -15 5 7 12 -31 9 -132 -8 -37 -6
-58 -5 -67 2 -9 7 -19 7 -34 -1 -11 -6 -30 -8 -41 -5 -13 4 -19 2 -17 -7 2 -9
-7 -12 -30 -10 -24 3 -38 -2 -47 -14 -9 -13 -24 -17 -49 -16 -20 2 -36 -2 -36
-8 0 -5 8 -10 18 -10 14 0 15 -2 2 -10 -26 -16 -21 -17 215 -41 214 -21 318
-29 540 -44 127 -8 262 -19 300 -25 39 -5 140 -17 225 -26 85 -8 191 -22 235
-29 44 -7 112 -16 150 -19 39 -4 90 -11 115 -16 25 -5 61 -11 81 -15 31 -5 36
-9 32 -26 -4 -12 0 -25 8 -31 10 -7 6 -8 -13 -4 -20 5 -28 2 -28 -7 0 -11 -17
-14 -67 -13 -38 1 -194 -3 -348 -8 -154 -4 -368 -10 -475 -12 -107 -2 -296 -7
-420 -12 -124 -4 -236 -6 -250 -3 l-25 4 30 13 30 12 -37 -1 c-20 0 -35 -5
-32 -9 7 -11 -18 -10 -36 2 -12 7 -12 11 3 28 17 19 17 20 -10 30 -15 6 -62
13 -103 17 -93 7 -252 35 -265 47 -6 6 -4 13 8 19 11 6 16 17 12 28 -3 9 -7
41 -9 71 -3 30 -8 88 -12 128 -5 52 -3 72 5 72 7 0 9 -5 5 -12 -4 -7 -3 -8 4
-4 18 11 38 -4 21 -15 -9 -6 0 -6 21 -3 45 9 48 12 20 22 -20 7 -21 10 -7 15
10 4 17 2 17 -3 0 -6 8 -10 18 -10 13 0 14 2 4 9 -20 12 20 21 98 21 46 0 61
-3 50 -10 -8 -5 -42 -10 -74 -10 -59 0 -74 -8 -23 -12 15 -1 27 -7 27 -13 0
-6 3 -6 8 1 4 6 49 14 101 17 52 3 97 10 100 14 9 13 144 17 136 4 -3 -6 -1
-11 4 -11 6 0 11 4 11 10 0 5 6 7 14 4 8 -3 17 0 21 6 4 7 22 9 51 4 37 -5 44
-4 44 10 0 9 7 16 16 16 8 0 12 -4 9 -10 -7 -11 0 -12 75 -10 30 1 59 5 65 9
5 5 17 8 25 8 47 1 202 15 240 23 25 5 78 12 119 15 41 4 116 17 167 30 50 13
138 26 195 30 163 10 319 46 319 73 0 6 6 12 14 12 7 0 19 7 26 15 7 8 22 15
34 16 11 0 15 3 8 6 -10 4 -10 10 2 28 15 23 15 24 -37 34 -28 6 -90 14 -137
19 l-85 9 140 3 c214 5 289 8 305 14 8 3 114 7 235 8 121 2 253 4 294 5 59 1
77 -1 87 -15z m1348 -86 c-7 -74 -12 -140 -14 -206 -1 -43 -13 -49 -110 -59
-79 -9 -155 -21 -205 -35 -34 -10 -63 -27 -68 -40 -4 -9 -14 -16 -24 -16 -11
0 -14 -3 -7 -10 10 -10 56 -2 49 9 -2 4 2 8 10 8 23 0 18 -17 -7 -26 -20 -8
-18 -10 22 -19 45 -10 45 -10 10 -11 -20 -1 -40 3 -46 9 -15 15 -223 20 -290
6 -32 -7 -79 -11 -104 -11 -69 2 -201 24 -215 35 -7 6 -52 13 -101 16 -49 4
-92 12 -96 18 -5 8 -8 7 -8 -2 0 -10 -4 -10 -16 2 -18 19 -28 21 -18 4 5 -8
-4 -10 -34 -6 -24 4 -45 1 -51 -5 -9 -9 -14 -9 -20 1 -10 17 -76 18 -97 1 -13
-11 -18 -11 -21 -1 -6 16 -73 15 -96 -3 -23 -17 -74 -10 -135 17 -24 11 -47
17 -50 13 -3 -3 4 -8 16 -12 33 -8 27 -23 -9 -23 -18 0 -37 7 -44 17 -13 18
-35 10 -35 -13 0 -8 -7 -14 -16 -14 -8 0 -12 5 -9 11 4 6 -2 13 -14 16 -11 3
-18 10 -14 15 3 6 0 8 -8 6 -8 -3 -13 -10 -12 -16 3 -13 -31 -21 -116 -27 -35
-2 -69 -9 -75 -15 -5 -5 -14 -10 -18 -10 -14 0 -8 23 10 36 13 10 14 12 2 12
-35 -2 -61 3 -56 10 2 4 -4 8 -15 8 -12 0 -15 -4 -9 -10 15 -15 12 -23 -9 -29
-14 -3 -18 -1 -14 9 3 9 -2 14 -16 14 -12 0 -21 -5 -21 -11 0 -7 -12 -9 -32
-7 -18 3 -46 1 -63 -3 -16 -5 -38 -6 -49 -3 -19 6 -19 7 -1 20 10 8 29 14 41
14 12 0 24 5 26 11 2 6 28 13 58 15 73 4 122 10 140 17 35 13 214 37 315 42
178 10 446 36 473 46 27 10 216 33 267 32 17 0 76 -6 131 -12 71 -8 125 -8
180 -1 44 5 143 14 222 20 164 11 200 24 255 92 64 80 58 91 -55 103 -38 3
-68 10 -68 14 0 4 37 8 82 9 45 1 82 3 84 5 1 1 53 3 114 3 l113 1 -9 -81z
m-3686 -7 c12 -8 22 -18 21 -24 0 -12 -109 -93 -156 -117 -18 -9 -64 -19 -101
-23 -37 -4 -104 -12 -149 -19 l-81 -13 -6 27 c-2 15 -8 61 -12 103 -6 74 -6
75 17 80 13 3 119 4 235 3 155 -3 216 -7 232 -17z m-518 -8 c0 -6 -4 -13 -10
-16 -5 -3 -10 1 -10 9 0 9 5 16 10 16 6 0 10 -4 10 -9z m30 -106 c0 -8 -7 -15
-15 -15 -8 0 -15 7 -15 15 0 8 7 15 15 15 8 0 15 -7 15 -15z m360 -149 c0 -2
-9 -6 -20 -9 -11 -3 -20 -1 -20 4 0 5 9 9 20 9 11 0 20 -2 20 -4z m2430 -76
c0 -5 -4 -10 -10 -10 -5 0 -10 5 -10 10 0 6 5 10 10 10 6 0 10 -4 10 -10z
m-2220 -4 c0 -2 -7 -6 -15 -10 -8 -3 -15 -1 -15 4 0 6 7 10 15 10 8 0 15 -2
15 -4z m3291 -5 c-10 -7 -10 -10 -1 -16 7 -4 16 -2 21 6 6 11 9 10 15 -4 3 -9
11 -14 17 -10 6 3 7 1 3 -6 -8 -12 -41 -6 -63 11 -14 12 -8 28 10 28 8 0 8 -3
-2 -9z m185 -1 c30 0 31 -16 1 -22 -22 -4 -87 17 -87 28 0 4 14 4 31 0 17 -3
42 -6 55 -6z m-3646 -10 c0 -5 -8 -10 -17 -11 -16 0 -16 -1 1 -8 17 -6 17 -8
3 -14 -8 -3 -18 -1 -20 6 -3 9 -9 9 -25 0 -14 -8 -29 -10 -44 -4 -20 8 -17 10
25 16 26 4 47 11 47 16 0 5 7 9 15 9 8 0 15 -4 15 -10z m125 0 c8 -13 -5 -13
-25 0 -13 8 -13 10 2 10 9 0 20 -4 23 -10z m195 0 c0 -5 -5 -10 -11 -10 -5 0
-7 5 -4 10 3 6 8 10 11 10 2 0 4 -4 4 -10z m3413 -7 c-7 -2 -19 -2 -25 0 -7 3
-2 5 12 5 14 0 19 -2 13 -5z m-1755 -10 c-10 -2 -26 -2 -35 0 -10 3 -2 5 17 5
19 0 27 -2 18 -5z m49 1 c-3 -3 -12 -4 -19 -1 -8 3 -5 6 6 6 11 1 17 -2 13 -5z
m1583 -14 c3 -6 30 -12 59 -14 45 -3 80 -21 66 -34 -6 -6 -75 10 -75 18 0 5
-25 12 -55 15 -30 4 -60 14 -67 23 -12 14 -8 15 26 9 22 -3 42 -11 46 -17z
m-1833 -16 c-3 -3 -12 -4 -19 -1 -8 3 -5 6 6 6 11 1 17 -2 13 -5z m-1787 -20
c0 -2 -9 -4 -21 -4 -11 0 -18 4 -14 10 5 8 35 3 35 -6z m53 -11 c-7 -2 -21 -2
-30 0 -10 3 -4 5 12 5 17 0 24 -2 18 -5z m770 0 c-7 -2 -19 -2 -25 0 -7 3 -2
5 12 5 14 0 19 -2 13 -5z m-670 -10 c-7 -2 -19 -2 -25 0 -7 3 -2 5 12 5 14 0
19 -2 13 -5z m72 -3 c3 -5 1 -10 -4 -10 -6 0 -11 5 -11 10 0 6 2 10 4 10 3 0
8 -4 11 -10z m742 -6 c-3 -3 -12 -4 -19 -1 -8 3 -5 6 6 6 11 1 17 -2 13 -5z
m91 -1 c-10 -2 -28 -2 -40 0 -13 2 -5 4 17 4 22 1 32 -1 23 -4z m-1418 -33 c0
-5 -4 -10 -10 -10 -5 0 -10 5 -10 10 0 6 5 10 10 10 6 0 10 -4 10 -10z m1063
3 c-7 -2 -19 -2 -25 0 -7 3 -2 5 12 5 14 0 19 -2 13 -5z m100 -10 c-7 -2 -19
-2 -25 0 -7 3 -2 5 12 5 14 0 19 -2 13 -5z m762 -18 c6 -2 -11 -4 -37 -4 -27
-1 -48 3 -48 7 0 7 62 5 85 -3z m312 9 c-3 -3 -12 -4 -19 -1 -8 3 -5 6 6 6 11
1 17 -2 13 -5z m2591 -100 c5 -3 -100 -114 -108 -114 -4 0 -26 18 -49 40 -22
22 -43 40 -46 40 -3 0 -5 -53 -5 -118 l0 -117 65 5 c36 3 65 4 65 1 0 -2 -29
-36 -65 -76 l-65 -73 0 -319 0 -319 -38 -37 -38 -37 -37 31 -37 30 0 320 0
320 -52 -7 -53 -7 53 56 52 56 0 73 0 73 127 138 127 137 50 -47 c28 -27 52
-49 54 -49z m-3185 49 c-7 -2 -19 -2 -25 0 -7 3 -2 5 12 5 14 0 19 -2 13 -5z
m113 -3 c87 -15 107 -20 101 -26 -2 -3 -35 0 -73 7 -38 6 -77 12 -86 13 -22 3
-36 16 -17 16 9 0 42 -5 75 -10z m141 -26 c-3 -3 -12 -4 -19 -1 -8 3 -5 6 6 6
11 1 17 -2 13 -5z m156 -21 c-7 -2 -19 -2 -25 0 -7 3 -2 5 12 5 14 0 19 -2 13
-5z m61 -15 c-4 -7 8 -8 37 -5 24 3 36 4 27 1 -11 -3 -18 -15 -18 -30 0 -26
-7 -29 -29 -15 -7 5 -11 14 -7 20 4 7 1 9 -7 5 -8 -3 -18 -1 -21 4 -8 14 4 43
15 36 5 -3 6 -10 3 -16z m119 -45 c-7 -2 -21 -2 -30 0 -10 3 -4 5 12 5 17 0
24 -2 18 -5z m3729 -88 l72 7 -72 -80 -72 -80 0 -283 1 -284 32 38 c34 39 48
45 65 24 8 -9 -11 -36 -78 -109 l-88 -96 -36 30 -36 29 0 321 0 320 -50 -4
c-28 -1 -50 -2 -50 0 0 2 53 61 118 131 l117 127 3 -49 3 -49 71 7z m-3774 44
c3 -12 2 -12 -6 0 -6 8 -15 10 -22 6 -9 -5 -11 -4 -6 4 10 15 28 10 34 -10z
m22 -29 c0 -5 -2 -10 -4 -10 -3 0 -8 5 -11 10 -3 6 -1 10 4 10 6 0 11 -4 11
-10z m775 -56 l50 -44 -3 -143 -2 -142 54 59 55 58 38 -30 c21 -17 53 -46 71
-65 l34 -35 1 -230 1 -230 -39 -43 c-21 -24 -78 -86 -127 -138 l-88 -94 -69
64 -69 64 -1 411 -1 410 -35 34 -35 34 52 53 c29 29 55 53 58 53 3 -1 28 -21
55 -46z m2572 -52 l53 -47 -54 -57 -54 -57 -53 49 -54 48 50 55 c28 30 52 55
55 56 3 0 29 -21 57 -47z m-398 -85 l34 -36 -122 -131 -121 -131 0 -127 0
-128 34 -33 33 -32 51 55 c53 59 63 64 80 43 8 -10 -13 -39 -89 -122 -54 -61
-104 -111 -109 -113 -5 -2 -39 23 -75 55 l-64 58 -1 237 0 237 121 130 121
131 37 -29 c20 -16 51 -45 70 -64z m-3566 -181 l-5 -141 55 60 54 59 39 -31
c21 -17 47 -39 56 -50 17 -18 16 -21 -23 -59 -67 -65 -68 -69 -12 -126 l48
-49 0 -227 0 -227 -34 -42 -33 -42 -39 31 -39 31 0 202 0 203 -36 27 -36 28 4
-229 3 -229 -34 -37 c-19 -21 -37 -38 -40 -38 -4 0 -21 13 -39 29 l-32 30 0
443 0 444 -34 33 -35 34 52 57 51 58 57 -51 57 -50 -5 -141z m2652 153 c28
-23 52 -43 54 -45 6 -6 -101 -114 -111 -114 -5 0 -29 19 -53 41 l-45 42 0
-330 0 -329 -36 -42 -36 -42 -39 31 -39 31 0 302 0 302 -30 29 c-16 16 -30 34
-30 40 0 6 22 33 50 60 l49 48 54 -46 55 -47 47 55 c25 30 50 55 53 55 4 0 30
-18 57 -41z m1155 -27 l0 -69 105 -97 105 -98 0 -86 -1 -87 -104 -113 c-57
-63 -105 -114 -108 -115 -3 -1 -28 20 -57 47 l-52 49 56 56 56 55 43 -42 c23
-23 46 -42 50 -42 4 0 7 38 7 84 l0 83 -104 94 -104 94 -1 74 -1 74 48 53 c26
28 50 52 55 53 4 1 7 -30 7 -67z m-5304 -8 l54 -46 0 -433 0 -432 32 -27 c17
-14 35 -26 39 -26 4 0 21 16 39 36 l32 37 20 -21 21 -20 -93 -101 -94 -101
-25 22 c-14 12 -47 43 -73 67 l-48 45 0 253 c0 139 -4 253 -9 253 -5 0 -24
-19 -44 -42 -19 -24 -58 -67 -86 -97 l-51 -55 0 -199 0 -199 -31 -39 c-17 -21
-36 -39 -42 -39 -6 0 -26 14 -44 32 l-33 32 0 465 c0 427 -1 466 -17 484 -17
18 -19 17 -74 -44 -50 -56 -59 -62 -73 -50 -9 7 -16 17 -16 22 0 12 211 239
222 239 5 0 31 -21 58 -46 l50 -47 0 -223 0 -224 95 102 95 103 0 91 0 91 -40
32 -40 32 52 59 c29 33 57 60 61 60 5 0 33 -21 63 -46z m3642 -34 l63 -59
-118 -131 c-65 -72 -121 -143 -125 -158 -4 -14 -7 -71 -6 -126 l1 -100 35 -33
36 -34 52 58 c50 54 54 57 70 41 16 -16 15 -20 -19 -60 -19 -24 -67 -77 -105
-118 l-69 -74 -71 63 -72 64 0 231 1 231 66 77 c37 42 68 76 69 75 2 -1 3 -34
4 -72 1 -39 4 -82 7 -96 4 -26 5 -26 53 25 l49 51 -50 43 c-27 24 -49 49 -49
55 0 14 91 107 105 107 5 0 38 -27 73 -60z m-1507 -56 c38 4 69 4 69 1 0 -3
-31 -39 -70 -80 l-70 -74 0 -277 0 -278 34 33 c30 29 36 31 55 19 26 -16 26
-20 -1 -44 -13 -11 -52 -52 -88 -92 -36 -40 -68 -72 -72 -72 -4 0 -21 13 -38
29 l-32 29 1 322 2 323 -51 -7 c-27 -4 -50 -4 -50 -1 0 4 53 64 118 134 l117
127 3 -49 3 -49 70 6z m453 -35 l66 -61 0 -234 0 -234 -57 -63 c-31 -34 -87
-95 -125 -135 l-67 -73 -70 63 -69 63 -1 234 -1 233 26 32 c48 57 218 236 225
236 3 0 36 -27 73 -61z m-1399 -109 l49 -50 -53 -54 -54 -55 -54 46 -53 45 0
-264 0 -264 36 -32 35 -31 28 32 c16 18 39 45 52 60 l24 29 19 -21 c18 -20 18
-21 -14 -58 -18 -21 -66 -73 -107 -115 l-75 -77 -69 61 -69 61 0 236 0 237 33
34 c18 19 73 79 121 133 49 53 92 97 95 97 4 0 29 -23 56 -50z m-541 -64 l68
-63 4 -269 4 -269 32 -26 c36 -30 34 -34 -30 -103 -48 -52 -44 -53 -114 12
l-36 35 -55 -59 -55 -59 -70 65 -70 65 -1 233 -1 234 123 133 c67 74 124 134
127 134 3 0 36 -28 74 -63z m4779 -1269 c58 -7 93 -29 121 -76 16 -27 18 -55
20 -195 l1 -163 33 -37 c43 -50 44 -97 1 -149 -28 -34 -35 -37 -80 -37 -42 0
-55 5 -80 29 -39 40 -41 109 -4 146 13 14 29 25 35 25 6 0 10 58 10 169 l0
170 -27 21 c-15 12 -38 20 -52 18 -24 -3 -26 -8 -31 -56 l-5 -53 -74 71 -75
71 75 75 74 75 3 -49 3 -49 52 -6z m-251 22 c28 -34 33 -85 12 -125 -10 -19
-26 -37 -36 -40 -16 -5 -17 -20 -15 -158 l3 -153 32 -37 c18 -20 32 -47 32
-61 0 -105 -118 -165 -188 -95 -16 16 -31 39 -34 52 -7 39 11 87 42 110 l30
22 0 149 0 148 -35 33 c-29 28 -35 41 -35 74 0 99 132 155 192 81z m-651
-1638 c60 -41 93 -96 97 -166 13 -203 -219 -311 -362 -169 -106 107 -77 282
59 346 57 26 157 21 206 -11z m-4381 -16 c41 -21 82 -68 101 -117 27 -70 3
-173 -53 -224 -34 -32 -83 -54 -118 -54 -28 0 -30 2 -30 39 0 36 3 40 30 46
143 31 122 246 -25 249 -56 1 -93 -26 -118 -85 -17 -41 -25 -49 -46 -49 -43 0
-54 14 -47 52 10 54 63 117 120 145 42 20 61 23 104 18 30 -3 66 -12 82 -20z
m2749 -20 c2 -2 1 -16 -3 -30 -6 -23 -11 -25 -56 -25 -67 0 -90 -24 -90 -97 0
-60 23 -93 65 -93 21 0 25 5 25 30 0 23 -4 30 -20 30 -16 0 -20 7 -20 30 0 30
1 30 54 30 l53 0 6 -76 c4 -42 4 -80 2 -85 -13 -20 -87 -31 -137 -19 -67 17
-98 64 -97 147 0 80 17 123 59 151 31 21 42 23 95 17 33 -4 62 -8 64 -10z
m371 -49 c0 -59 7 -66 62 -66 24 0 29 3 24 17 -4 9 -4 36 0 60 6 42 8 44 37
41 l31 -3 3 -152 3 -153 -35 0 c-29 0 -36 4 -41 26 -4 14 -4 43 -1 65 l5 39
-44 0 -44 0 0 -66 0 -65 -32 3 -33 3 -3 140 c-1 76 0 145 2 152 3 7 19 13 36
13 30 0 30 -1 30 -54z m468 1 l3 -49 38 7 c34 6 41 3 65 -25 21 -25 26 -42 26
-84 0 -74 -26 -106 -84 -106 -23 0 -47 5 -54 12 -9 9 -12 9 -12 0 0 -7 -11
-12 -25 -12 l-25 0 0 156 0 155 33 -3 c31 -3 32 -5 35 -51z m-727 27 c19 -23
-1 -49 -37 -49 -20 0 -30 6 -32 18 -8 40 43 63 69 31z m1781 -26 l3 -33 52 3
c56 4 72 -9 74 -60 0 -16 4 -11 13 17 11 37 14 40 46 39 32 0 36 -4 46 -40
l12 -39 7 30 c4 17 8 36 11 43 2 6 19 12 39 12 32 0 35 2 35 30 l0 30 90 0 91
0 -3 -132 -3 -133 -37 -3 -38 -3 -2 43 c-1 24 -1 61 1 83 1 22 -3 54 -8 70 -7
23 -9 3 -10 -82 l-1 -113 -40 0 -40 0 -1 83 c-1 77 -1 80 -14 52 -8 -16 -19
-54 -26 -83 -12 -53 -13 -53 -48 -50 -32 3 -37 7 -47 43 l-12 40 -11 -30 c-6
-16 -14 -36 -16 -43 -3 -8 -17 -12 -37 -10 -29 3 -33 8 -52 67 -19 58 -24 65
-48 66 -25 1 -28 -3 -28 -32 0 -26 4 -33 20 -33 15 0 20 -7 20 -29 0 -30 -14
-41 -54 -41 -39 0 -66 27 -66 69 0 20 -7 46 -15 57 -31 41 -6 111 47 131 47
16 46 16 50 -19z m612 -48 c-7 -83 0 -101 17 -51 26 74 139 88 189 23 24 -30
23 -89 -1 -118 -43 -53 -123 -54 -171 -2 -28 30 -30 30 -32 -6 -1 -12 -12 -23
-29 -29 -54 -18 -57 -10 -56 133 l1 130 44 0 45 0 -7 -80z m-2274 30 c0 -25 4
-30 25 -30 21 0 25 -5 25 -30 0 -26 -4 -30 -26 -30 -24 0 -25 -2 -22 -47 3
-41 6 -48 26 -51 33 -5 31 -48 -3 -56 -52 -13 -99 34 -93 94 3 38 -3 60 -17
60 -22 0 -19 36 5 60 11 11 20 29 20 40 0 16 7 20 30 20 27 0 30 -3 30 -30z
m-2547 -7 c40 -20 61 -74 50 -132 -11 -60 -53 -90 -129 -92 -30 -1 -59 -2 -64
-3 -7 -1 -11 33 -12 89 -1 143 0 153 20 158 28 7 105 -5 135 -20z m790 -97
c-2 -65 -4 -120 -5 -122 -2 -1 -12 -4 -22 -6 -18 -3 -19 4 -20 112 0 121 5
143 32 138 15 -3 17 -18 15 -122z m204 107 c50 -23 85 -80 77 -124 -14 -75
-91 -130 -157 -114 -36 10 -75 51 -88 95 -17 57 10 116 66 141 50 23 58 23
102 2z m-864 -5 c6 -19 -3 -38 -18 -38 -17 0 -38 27 -30 40 9 14 42 13 48 -2z
m281 -4 c7 -19 -1 -34 -18 -34 -18 0 -39 27 -31 40 10 16 42 12 49 -6z m96
-29 c0 -18 5 -25 20 -25 13 0 20 -7 20 -20 0 -13 -7 -20 -20 -20 -17 0 -20 -7
-20 -41 0 -32 4 -42 20 -46 11 -3 20 -14 20 -24 0 -14 -7 -19 -27 -19 -45 0
-56 14 -61 74 -2 31 -8 56 -13 56 -5 0 -9 9 -9 20 0 11 5 20 10 20 6 0 10 8
10 18 0 24 8 32 32 32 13 0 18 -7 18 -25z m1920 -100 l0 -105 -35 0 -35 0 0
105 0 105 35 0 35 0 0 -105z m510 31 c0 -77 6 -88 43 -78 12 3 16 10 12 23 -4
11 -3 44 0 74 7 52 9 55 35 55 26 0 29 -4 35 -51 4 -28 4 -75 0 -104 l-6 -53
-60 -1 c-32 0 -63 -2 -68 -5 -5 -3 -20 4 -35 15 -25 19 -26 25 -26 110 l0 89
35 0 35 0 0 -74z m-1725 40 c38 -16 43 -27 21 -45 -10 -8 -16 -9 -21 -1 -3 5
-17 10 -31 10 -29 0 -52 -45 -36 -70 11 -18 49 -25 65 -12 8 7 18 6 29 -2 17
-12 17 -14 0 -29 -56 -50 -142 -15 -142 59 0 45 14 70 48 88 33 19 26 19 67 2z
m165 -3 c33 -23 40 -33 40 -65 0 -27 -2 -28 -56 -28 -40 0 -55 -4 -52 -12 6
-17 56 -22 72 -9 10 8 17 7 26 -4 7 -9 11 -17 9 -19 -54 -42 -82 -45 -122 -13
-23 18 -28 30 -29 67 0 37 4 48 31 72 36 33 48 34 81 11z m193 -11 c13 -12 17
-31 17 -85 0 -69 0 -69 -25 -65 -14 3 -28 1 -31 -3 -10 -16 -54 -9 -74 11 -27
27 -25 46 5 76 20 20 32 24 55 19 25 -5 29 -4 24 9 -7 19 -50 21 -57 4 -3 -10
-7 -10 -20 1 -25 20 -21 30 16 46 35 15 62 11 90 -13z m187 -10 c15 -18 20
-40 20 -82 0 -64 -3 -70 -30 -63 -16 4 -20 16 -22 67 -3 58 -4 61 -28 61 -24
0 -25 -3 -28 -67 -3 -65 -4 -68 -27 -68 -25 0 -25 1 -25 89 l0 90 43 3 c58 4
74 -1 97 -30z m-1625 -60 c0 -80 -2 -87 -20 -87 -17 0 -21 9 -27 55 -10 78 -1
120 26 120 20 0 21 -5 21 -88z m197 41 c3 -73 -2 -135 -13 -156 -16 -28 -67
-47 -100 -35 -40 14 -55 34 -39 53 12 14 15 14 31 -1 19 -18 60 -16 67 4 2 8
-7 12 -28 12 -22 0 -41 9 -62 30 -26 27 -29 35 -24 68 10 54 37 72 107 72 l59
0 2 -47z m80 10 c1 -35 0 -108 -1 -125 -1 -5 -9 -8 -20 -8 -15 0 -19 11 -24
71 -7 81 -2 99 24 99 15 0 19 -8 21 -37z m284 16 c14 -15 19 -37 19 -85 1 -64
1 -65 -24 -63 -14 2 -36 -1 -47 -4 -12 -4 -33 -3 -48 2 -21 9 -26 17 -26 44 0
43 15 57 62 57 21 0 38 5 38 10 0 17 -29 23 -54 12 -33 -15 -52 5 -29 30 23
25 84 24 109 -3z m-1226 -108 c0 -36 -2 -39 -34 -45 -28 -5 -36 -12 -41 -36
-5 -25 -12 -30 -36 -30 -27 0 -29 3 -29 35 0 31 -3 35 -25 35 -14 0 -25 4 -25
9 0 5 -3 16 -6 25 -5 13 1 16 25 16 26 0 31 -4 31 -25 0 -21 5 -25 30 -25 28
0 30 2 30 40 l0 40 40 0 c40 0 40 0 40 -39z"/>
<path d="M3447 6753 c-13 -12 -7 -23 11 -22 10 0 12 3 4 6 -6 2 -10 9 -6 14 6
10 0 12 -9 2z"/>
<path d="M3370 6739 c0 -5 14 -9 32 -9 36 0 31 12 -7 16 -14 1 -25 -2 -25 -7z"/>
<path d="M3490 6740 c0 -6 26 -10 62 -10 74 0 71 10 -6 16 -35 3 -56 1 -56 -6z"/>
<path d="M3620 6711 c0 -12 66 -34 83 -28 6 3 3 6 -8 6 -15 1 -17 3 -7 10 10
6 7 10 -12 13 -14 3 -23 1 -20 -3 3 -5 0 -9 -5 -9 -6 0 -11 5 -11 10 0 6 -4
10 -10 10 -5 0 -10 -4 -10 -9z"/>
<path d="M3918 6713 c7 -3 16 -2 19 1 4 3 -2 6 -13 5 -11 0 -14 -3 -6 -6z"/>
<path d="M3958 6703 c6 -2 18 -2 25 0 6 3 1 5 -13 5 -14 0 -19 -2 -12 -5z"/>
<path d="M4023 6693 c9 -2 23 -2 30 0 6 3 -1 5 -18 5 -16 0 -22 -2 -12 -5z"/>
<path d="M4295 6640 c3 -5 12 -7 20 -3 21 7 19 13 -6 13 -11 0 -18 -4 -14 -10z"/>
<path d="M699 6479 c13 -5 32 -7 42 -4 11 4 19 2 19 -4 0 -6 5 -11 11 -11 5 0
8 4 4 9 -3 5 5 11 17 14 13 2 -8 4 -47 4 -53 1 -64 -1 -46 -8z"/>
<path d="M850 6475 l25 -16 -25 5 c-15 3 -33 -2 -45 -11 -18 -14 -18 -15 -2
-9 25 8 43 -3 26 -16 -11 -7 -9 -8 4 -4 10 3 37 7 60 7 31 2 35 3 14 6 -22 4
-27 8 -22 24 4 13 2 19 -9 19 -8 0 -23 3 -33 6 -11 3 -8 -1 7 -11z"/>
<path d="M924 6469 c-6 -10 23 -19 59 -18 18 0 26 3 19 6 -6 2 -10 8 -8 12 3
4 -11 7 -30 7 -20 0 -37 -3 -40 -7z"/>
<path d="M1150 6470 c0 -5 15 -11 33 -11 27 -2 28 -2 7 -6 -14 -3 -49 1 -77 8
-73 17 -77 5 -6 -18 49 -16 75 -18 163 -13 110 7 113 8 40 16 -70 7 -91 14
-85 24 4 6 -11 10 -34 10 -23 0 -41 -4 -41 -10z"/>
<path d="M1408 6429 c12 -5 22 -13 22 -19 0 -5 12 -10 28 -9 l27 1 -30 13
c-25 11 -26 13 -10 17 11 3 2 5 -20 5 -33 1 -36 -1 -17 -8z"/>
<path d="M1288 6403 c6 -2 18 -2 25 0 6 3 1 5 -13 5 -14 0 -19 -2 -12 -5z"/>
<path d="M1976 6398 c3 -4 9 -8 15 -8 5 0 9 4 9 8 0 5 -7 9 -15 9 -8 0 -12 -4
-9 -9z"/>
<path d="M1603 6393 c9 -2 23 -2 30 0 6 3 -1 5 -18 5 -16 0 -22 -2 -12 -5z"/>
<path d="M2010 6396 c0 -2 7 -6 15 -10 8 -3 15 -1 15 4 0 6 -7 10 -15 10 -8 0
-15 -2 -15 -4z"/>
<path d="M1765 6380 c28 -12 45 -12 45 0 0 6 -15 10 -32 9 -28 0 -30 -2 -13
-9z"/>
<path d="M1573 6373 c9 -2 23 -2 30 0 6 3 -1 5 -18 5 -16 0 -22 -2 -12 -5z"/>
<path d="M1828 6373 c7 -3 16 -2 19 1 4 3 -2 6 -13 5 -11 0 -14 -3 -6 -6z"/>
<path d="M1980 6370 c14 -4 34 -8 45 -8 16 0 15 2 -5 8 -14 4 -34 8 -45 8 -16
0 -15 -2 5 -8z"/>
<path d="M2135 6361 c-11 -5 -23 -7 -27 -4 -5 2 -8 -1 -8 -6 0 -6 18 -11 41
-11 24 0 38 -4 34 -10 -9 -15 8 -12 31 4 18 14 18 15 -9 25 -32 12 -35 13 -62
2z"/>
<path d="M1918 6353 c7 -3 16 -2 19 1 4 3 -2 6 -13 5 -11 0 -14 -3 -6 -6z"/>
<path d="M1952 6343 c-16 -6 14 -32 38 -33 13 0 13 1 0 10 -13 9 -13 11 0 20
12 8 12 10 -5 9 -11 0 -26 -3 -33 -6z"/>
<path d="M1900 6336 c0 -2 7 -6 15 -10 8 -3 15 -1 15 4 0 6 -7 10 -15 10 -8 0
-15 -2 -15 -4z"/>
<path d="M2305 6330 c-11 -5 -14 -9 -7 -9 7 -1 11 -4 9 -8 -3 -5 10 -8 29 -9
19 0 34 3 34 7 0 4 12 10 28 12 15 2 8 3 -15 2 -24 -1 -40 1 -37 6 6 11 -14
10 -41 -1z"/>
<path d="M2095 6320 c3 -5 10 -10 16 -10 5 0 9 5 9 10 0 6 -7 10 -16 10 -8 0
-12 -4 -9 -10z"/>
<path d="M2230 6320 c8 -5 24 -10 34 -10 26 0 18 6 -19 14 -22 5 -26 4 -15 -4z"/>
<path d="M2592 6316 c7 -7 19 -11 25 -9 22 9 14 23 -12 23 -21 0 -24 -2 -13
-14z"/>
<path d="M2665 6320 c-4 -7 3 -8 22 -4 38 9 42 14 10 14 -14 0 -29 -5 -32 -10z"/>
<path d="M2040 6310 c20 -13 33 -13 25 0 -3 6 -14 10 -23 10 -15 0 -15 -2 -2
-10z"/>
<path d="M2174 6293 c4 -24 18 -26 73 -9 26 8 38 15 26 15 -12 1 -33 -3 -48
-9 -20 -8 -27 -7 -31 5 -8 21 -23 19 -20 -2z"/>
<path d="M2675 6300 c-16 -6 -51 -11 -76 -12 -26 -2 -45 -7 -42 -11 6 -10 153
-6 153 4 0 4 23 7 51 7 28 1 54 3 57 6 3 3 -12 6 -34 6 -21 0 -48 2 -59 5 -11
2 -33 0 -50 -5z"/>
<path d="M2970 6302 c0 -5 14 -7 30 -4 17 2 30 6 30 8 0 2 -13 4 -30 4 -16 0
-30 -4 -30 -8z"/>
<path d="M1963 6283 c9 -2 25 -2 35 0 9 3 1 5 -18 5 -19 0 -27 -2 -17 -5z"/>
<path d="M2315 6270 c3 -5 18 -10 33 -9 24 0 25 1 7 9 -28 12 -47 12 -40 0z"/>
<path d="M3018 6273 c6 -2 18 -2 25 0 6 3 1 5 -13 5 -14 0 -19 -2 -12 -5z"/>
<path d="M2258 6263 c7 -3 16 -2 19 1 4 3 -2 6 -13 5 -11 0 -14 -3 -6 -6z"/>
<path d="M2735 6260 c3 -5 13 -10 21 -10 8 0 12 5 9 10 -3 6 -13 10 -21 10 -8
0 -12 -4 -9 -10z"/>
<path d="M2814 6254 c11 -8 25 -14 30 -13 6 0 5 3 -2 6 -6 2 -10 8 -8 12 3 4
-5 8 -17 8 -21 2 -22 1 -3 -13z"/>
<path d="M2873 6243 c9 -2 23 -2 30 0 6 3 -1 5 -18 5 -16 0 -22 -2 -12 -5z"/>
<path d="M3228 6243 c6 -2 18 -2 25 0 6 3 1 5 -13 5 -14 0 -19 -2 -12 -5z"/>
<path d="M3338 6243 c6 -2 18 -2 25 0 6 3 1 5 -13 5 -14 0 -19 -2 -12 -5z"/>
<path d="M2888 6173 c6 -2 18 -2 25 0 6 3 1 5 -13 5 -14 0 -19 -2 -12 -5z"/>
<path d="M2950 6172 c0 -5 7 -13 16 -16 10 -4 14 -1 12 6 -5 15 -28 23 -28 10z"/>
<path d="M3103 6173 c9 -2 23 -2 30 0 6 3 -1 5 -18 5 -16 0 -22 -2 -12 -5z"/>
<path d="M3165 6170 l-20 -9 20 0 c11 0 27 4 35 9 13 9 13 10 0 9 -8 0 -24 -4
-35 -9z"/>
<path d="M3010 6162 c0 -6 8 -13 18 -15 14 -4 14 -5 -3 -6 -11 -1 -27 -6 -35
-11 -10 -6 -2 -7 25 -3 45 7 81 33 47 33 -11 0 -27 3 -36 6 -9 3 -16 1 -16 -4z"/>
<path d="M2930 6140 c8 -5 22 -9 30 -9 10 0 8 3 -5 9 -27 12 -43 12 -25 0z"/>
<path d="M3235 6140 c-3 -5 3 -10 14 -10 11 0 23 5 26 10 3 6 -3 10 -14 10
-11 0 -23 -4 -26 -10z"/>
<path d="M3100 6128 c-19 -5 -38 -14 -41 -20 -4 -7 -14 -6 -28 1 -11 7 -21 10
-22 9 -8 -30 -5 -41 12 -45 10 -3 17 -8 15 -12 -3 -3 19 -7 47 -8 l52 -1 -49
15 -49 14 30 19 c16 10 59 22 94 28 59 9 60 9 19 10 -25 0 -61 -4 -80 -10z"/>
<path d="M3200 6112 l35 -5 -30 -8 c-29 -7 -28 -7 10 -8 22 0 60 -2 85 -4 39
-4 40 -4 10 3 -32 7 -31 7 19 9 83 2 57 8 -59 13 -58 3 -89 3 -70 0z"/>
<path d="M3445 6092 c-64 -3 -105 -23 -44 -21 51 1 126 14 114 19 -5 3 -37 4
-70 2z"/>
<path d="M3216 6055 c4 -8 10 -15 16 -15 5 0 6 -4 3 -10 -3 -6 1 -7 10 -4 14
6 14 8 -2 21 -16 13 -14 14 25 10 23 -3 42 -1 42 4 0 5 -22 9 -50 9 -40 0 -48
-3 -44 -15z"/>
<path d="M4620 6049 c0 -5 5 -7 10 -4 6 3 10 8 10 11 0 2 -4 4 -10 4 -5 0 -10
-5 -10 -11z"/>
<path d="M3375 6030 c-19 -8 -19 -9 3 -9 12 -1 22 4 22 9 0 6 -1 10 -2 9 -2 0
-12 -4 -23 -9z"/>
<path d="M3040 6020 c0 -12 8 -12 35 0 18 8 17 9 -7 9 -16 1 -28 -3 -28 -9z"/>
<path d="M3088 6012 c-10 -2 -18 -8 -18 -13 0 -11 37 -11 65 0 18 7 18 8 -5
12 -14 3 -33 3 -42 1z"/>
<path d="M2815 5970 c3 -5 23 -10 43 -9 33 1 34 2 12 9 -36 12 -62 12 -55 0z"/>
<path d="M2768 5943 c7 -3 16 -2 19 1 4 3 -2 6 -13 5 -11 0 -14 -3 -6 -6z"/>
<path d="M2660 5920 c0 -5 5 -10 11 -10 5 0 7 5 4 10 -3 6 -8 10 -11 10 -2 0
-4 -4 -4 -10z"/>
<path d="M2588 5913 c7 -3 16 -2 19 1 4 3 -2 6 -13 5 -11 0 -14 -3 -6 -6z"/>
<path d="M1858 5843 c12 -2 30 -2 40 0 9 3 -1 5 -23 4 -22 0 -30 -2 -17 -4z"/>
<path d="M1968 5813 c6 -2 18 -2 25 0 6 3 1 5 -13 5 -14 0 -19 -2 -12 -5z"/>
<path d="M1120 5710 c0 -5 4 -10 9 -10 6 0 13 5 16 10 3 6 -1 10 -9 10 -9 0
-16 -4 -16 -10z"/>
<path d="M993 5703 c9 -2 23 -2 30 0 6 3 -1 5 -18 5 -16 0 -22 -2 -12 -5z"/>
<path d="M3300 5770 c-12 -8 -12 -10 5 -9 11 0 38 4 60 8 l40 9 -45 1 c-25 0
-52 -4 -60 -9z"/>
<path d="M4338 5743 c6 -2 18 -2 25 0 6 3 1 5 -13 5 -14 0 -19 -2 -12 -5z"/>
<path d="M4063 5723 c9 -2 23 -2 30 0 6 3 -1 5 -18 5 -16 0 -22 -2 -12 -5z"/>
<path d="M2930 5650 c0 -5 5 -10 10 -10 6 0 10 5 10 10 0 6 -4 10 -10 10 -5 0
-10 -4 -10 -10z"/>
<path d="M3665 5560 c-3 -5 0 -10 7 -10 9 0 9 -3 -2 -10 -12 -8 -9 -10 13 -10
15 0 27 5 27 10 0 6 8 10 18 11 14 0 14 2 -3 9 -28 12 -53 12 -60 0z"/>
<path d="M3865 5560 c28 -12 37 -12 30 0 -3 6 -16 10 -28 9 -21 0 -21 -1 -2
-9z"/>
<path d="M3230 5528 c0 -5 36 -8 80 -8 46 0 80 4 80 10 0 6 -33 9 -80 7 -44
-1 -80 -5 -80 -9z"/>
<path d="M4060 5531 c8 -6 28 -8 45 -5 24 4 26 3 10 -5 -16 -8 -10 -10 27 -10
39 -1 46 2 42 14 -5 13 -9 13 -22 3 -12 -10 -16 -10 -19 0 -3 7 -23 12 -51 12
-33 0 -43 -3 -32 -9z"/>
<path d="M3968 5523 c6 -2 18 -2 25 0 6 3 1 5 -13 5 -14 0 -19 -2 -12 -5z"/>
<path d="M2708 5513 c6 -2 18 -2 25 0 6 3 1 5 -13 5 -14 0 -19 -2 -12 -5z"/>
<path d="M2308 5503 c7 -3 16 -2 19 1 4 3 -2 6 -13 5 -11 0 -14 -3 -6 -6z"/>
<path d="M3227 5503 c-4 -4 -20 -9 -35 -11 -44 -6 -39 -12 9 -11 39 0 102 17
72 18 -6 1 -18 3 -25 6 -8 3 -17 2 -21 -2z"/>
<path d="M3988 5503 c7 -3 16 -2 19 1 4 3 -2 6 -13 5 -11 0 -14 -3 -6 -6z"/>
<path d="M2618 5493 c7 -3 16 -2 19 1 4 3 -2 6 -13 5 -11 0 -14 -3 -6 -6z"/>
<path d="M2906 5491 c-4 -5 3 -7 14 -4 23 6 26 13 6 13 -8 0 -17 -4 -20 -9z"/>
<path d="M3330 5490 c14 -9 88 -15 79 -6 -2 2 -24 7 -49 10 -32 5 -41 4 -30
-4z"/>
<path d="M2315 5479 c-11 -16 -2 -17 25 -2 24 12 24 13 3 13 -12 0 -25 -5 -28
-11z"/>
<path d="M2548 5473 c7 -3 16 -2 19 1 4 3 -2 6 -13 5 -11 0 -14 -3 -6 -6z"/>
<path d="M2815 5470 c-3 -5 1 -10 9 -10 8 0 18 5 21 10 3 6 -1 10 -9 10 -8 0
-18 -4 -21 -10z"/>
<path d="M3033 5473 c9 -2 23 -2 30 0 6 3 -1 5 -18 5 -16 0 -22 -2 -12 -5z"/>
<path d="M3084 5472 c5 -8 -2 -12 -18 -12 -15 0 -25 -5 -23 -12 1 -9 -13 -13
-45 -12 -27 0 -48 -4 -48 -9 0 -5 -14 -7 -31 -3 -17 3 -50 3 -73 -1 -41 -7
-41 -7 -11 -14 l30 -7 -30 -1 c-27 -1 -28 -3 -11 -12 13 -8 24 -8 42 1 13 7
21 16 19 20 -2 4 37 6 87 4 62 -2 94 -7 99 -16 5 -7 9 -10 10 -5 5 24 4 33 -6
39 -6 5 -3 12 9 21 15 11 16 16 6 22 -9 5 -11 4 -6 -3z"/>
<path d="M2266 5461 c-4 -5 3 -7 14 -4 23 6 26 13 6 13 -8 0 -17 -4 -20 -9z"/>
<path d="M2915 5460 c-46 -6 -44 -7 29 -8 44 -1 76 1 72 5 -10 10 -43 11 -101
3z"/>
<path d="M2190 5450 c0 -6 11 -8 28 -4 39 10 40 14 4 14 -18 0 -32 -5 -32 -10z"/>
<path d="M3500 5450 c0 -5 5 -10 10 -10 6 0 10 5 10 10 0 6 -4 10 -10 10 -5 0
-10 -4 -10 -10z"/>
<path d="M2328 5443 c6 -2 18 -2 25 0 6 3 1 5 -13 5 -14 0 -19 -2 -12 -5z"/>
<path d="M2440 5442 c0 -5 7 -9 15 -9 8 0 12 4 9 9 -3 4 -9 8 -15 8 -5 0 -9
-4 -9 -8z"/>
<path d="M2663 5437 c3 -14 -40 -22 -56 -10 -7 5 -34 6 -62 2 -56 -7 -57 -10
-5 -14 19 -2 41 2 48 7 8 7 12 7 12 -2 0 -9 15 -11 58 -6 38 4 50 3 37 -3 -17
-8 -16 -10 11 -10 17 -1 37 6 44 14 7 8 17 12 23 8 6 -4 7 -1 2 6 -4 7 -16 11
-26 8 -10 -3 -34 -1 -53 3 -24 5 -35 4 -33 -3z"/>
<path d="M2828 5443 c6 -2 18 -2 25 0 6 3 1 5 -13 5 -14 0 -19 -2 -12 -5z"/>
<path d="M3128 5443 c6 -2 18 -2 25 0 6 3 1 5 -13 5 -14 0 -19 -2 -12 -5z"/>
<path d="M2328 5423 c6 -2 18 -2 25 0 6 3 1 5 -13 5 -14 0 -19 -2 -12 -5z"/>
<path d="M3120 5410 c-8 -5 -10 -10 -5 -10 6 0 17 5 25 10 8 5 11 10 5 10 -5
0 -17 -5 -25 -10z"/>
<path d="M2928 5393 c7 -3 16 -2 19 1 4 3 -2 6 -13 5 -11 0 -14 -3 -6 -6z"/>
<path d="M4528 5533 c6 -2 18 -2 25 0 6 3 1 5 -13 5 -14 0 -19 -2 -12 -5z"/>
<path d="M3680 5446 c0 -2 7 -6 15 -10 8 -3 15 -1 15 4 0 6 -7 10 -15 10 -8 0
-15 -2 -15 -4z"/>
<path d="M6160 5200 c0 -47 3 -60 15 -60 12 0 15 13 15 60 0 47 -3 60 -15 60
-12 0 -15 -13 -15 -60z"/>
<path d="M2918 5093 c6 -2 18 -2 25 0 6 3 1 5 -13 5 -14 0 -19 -2 -12 -5z"/>
<path d="M3308 5083 c7 -3 16 -2 19 1 4 3 -2 6 -13 5 -11 0 -14 -3 -6 -6z"/>
<path d="M1808 4743 c7 -3 16 -2 19 1 4 3 -2 6 -13 5 -11 0 -14 -3 -6 -6z"/>
<path d="M1198 4733 c7 -3 16 -2 19 1 4 3 -2 6 -13 5 -11 0 -14 -3 -6 -6z"/>
<path d="M1652 4731 c2 -7 7 -12 11 -12 12 1 9 15 -3 20 -7 2 -11 -2 -8 -8z"/>
<path d="M1430 4709 c0 -5 5 -7 10 -4 6 3 10 2 10 -4 0 -6 8 -7 17 -4 15 6 15
7 -3 14 -27 11 -34 10 -34 -2z"/>
<path d="M1660 4700 c-12 -8 -11 -10 7 -10 12 0 25 5 28 10 8 13 -15 13 -35 0z"/>
<path d="M967 4684 c-4 -4 -19 -8 -34 -9 -16 -1 -38 -3 -50 -3 -13 -1 -23 -6
-23 -12 0 -5 7 -7 15 -4 8 4 15 1 15 -5 0 -6 12 -11 28 -11 21 0 24 2 12 10
-13 9 -13 10 1 10 14 0 61 29 48 30 -3 0 -9 -3 -12 -6z"/>
<path d="M804 4653 c10 -11 36 -12 36 -2 0 5 -10 9 -22 9 -12 0 -18 -3 -14 -7z"/>
<path d="M798 4613 c7 -3 16 -2 19 1 4 3 -2 6 -13 5 -11 0 -14 -3 -6 -6z"/>
<path d="M4108 4783 c7 -3 16 -2 19 1 4 3 -2 6 -13 5 -11 0 -14 -3 -6 -6z"/>
<path d="M3048 4713 c7 -3 16 -2 19 1 4 3 -2 6 -13 5 -11 0 -14 -3 -6 -6z"/>
<path d="M948 5003 c7 -3 16 -2 19 1 4 3 -2 6 -13 5 -11 0 -14 -3 -6 -6z"/>
<path d="M3769 3865 c-1 -11 -2 -129 -3 -263 l-2 -243 50 -47 51 -47 3 260 2
259 -50 51 c-41 41 -50 46 -51 30z"/>
<path d="M5680 3951 l0 -100 50 53 c28 29 50 55 50 58 0 3 -22 24 -50 47 l-50
42 0 -100z"/>
<path d="M2320 3648 l0 -102 31 30 c17 16 40 42 51 57 l20 29 -33 35 c-67 69
-69 67 -69 -49z"/>
<path d="M3230 3571 l0 -258 46 -43 c25 -23 48 -39 51 -36 4 3 8 117 11 252
l4 247 -48 48 c-27 27 -52 49 -56 49 -4 0 -8 -116 -8 -259z"/>
<path d="M1290 3400 l0 -260 53 -50 52 -49 3 261 2 262 -37 39 c-77 79 -73 90
-73 -203z"/>
<path d="M6322 1934 c-33 -23 -26 -65 12 -79 24 -8 31 -6 47 14 24 29 24 36
-1 61 -24 24 -29 24 -58 4z"/>
<path d="M5882 2428 c-7 -7 -12 -21 -12 -33 0 -29 19 -45 52 -45 35 0 52 28
38 64 -7 20 -17 26 -38 26 -15 0 -33 -5 -40 -12z"/>
<path d="M5892 1914 c-29 -20 -28 -50 2 -69 19 -13 29 -14 45 -5 28 14 29 65
2 80 -25 13 -22 13 -49 -6z"/>
<path d="M5155 781 c-16 -9 -41 -37 -54 -62 -20 -38 -23 -52 -17 -94 26 -172
280 -177 303 -6 10 70 -33 148 -91 171 -40 15 -107 11 -141 -9z m59 -47 c9 -8
16 -24 16 -34 0 -20 -25 -50 -41 -50 -27 0 -49 22 -49 50 0 44 44 65 74 34z
m116 -14 c13 -25 -1 -56 -30 -65 -37 -12 -74 41 -50 70 18 22 67 19 80 -5z
m-110 -100 c15 -29 3 -59 -26 -66 -30 -8 -54 11 -54 40 0 46 59 64 80 26z
m102 3 c22 -20 23 -31 1 -55 -22 -24 -49 -23 -67 4 -20 28 -20 33 0 52 20 21
43 20 66 -1z"/>
<path d="M4567 643 c-14 -13 -7 -93 8 -99 23 -9 45 15 45 50 0 43 -31 72 -53
49z"/>
<path d="M5968 713 c7 -3 16 -2 19 1 4 3 -2 6 -13 5 -11 0 -14 -3 -6 -6z"/>
<path d="M6320 629 c-10 -17 -9 -24 3 -37 23 -22 49 -8 45 25 -4 35 -33 42
-48 12z"/>
<path d="M1297 693 c-9 -8 -9 -81 -1 -122 5 -25 12 -31 31 -31 55 0 90 46 77
103 -4 20 -16 33 -40 43 -37 15 -57 18 -67 7z"/>
<path d="M2296 674 c-30 -30 -32 -53 -11 -93 15 -29 45 -43 80 -36 11 2 24 4
28 4 8 1 37 63 37 80 0 5 -12 23 -26 40 -33 39 -71 41 -108 5z"/>
<path d="M2725 620 c-4 -6 5 -10 19 -10 14 0 26 5 26 10 0 6 -9 10 -19 10 -11
0 -23 -4 -26 -10z"/>
<path d="M2895 560 c-7 -11 2 -30 13 -30 4 0 14 5 22 10 13 9 13 11 0 20 -19
12 -27 12 -35 0z"/>
<path d="M1616 614 c-11 -29 -6 -53 13 -64 39 -20 68 11 51 55 -11 29 -54 35
-64 9z"/>
<path d="M2020 555 c-16 -19 4 -29 30 -15 25 13 25 16 0 23 -10 3 -24 -1 -30
-8z"/>
<path d="M405 2636 c-100 -20 -220 -86 -298 -163 -116 -116 -107 -78 -107
-464 l0 -335 54 -65 c29 -36 71 -79 92 -96 57 -45 162 -100 214 -113 25 -6 54
-13 65 -16 72 -19 204 -13 307 14 118 31 282 152 356 262 75 113 108 250 99
405 -10 161 -75 295 -201 412 -156 146 -363 202 -581 159z m67 -246 c27 -28
30 -35 24 -73 -4 -25 -25 -70 -51 -109 -25 -37 -45 -70 -45 -73 0 -3 20 -5 45
-5 42 0 45 -2 45 -27 l0 -28 -80 3 c-102 4 -103 11 -25 124 52 75 68 113 61
141 -3 15 -13 27 -20 27 -21 0 -46 -28 -40 -45 5 -11 -1 -15 -20 -15 -21 0
-26 5 -26 26 0 49 32 82 83 83 10 1 32 -13 49 -29z m258 3 l32 -26 -4 -123
c-3 -108 -6 -126 -23 -143 -34 -34 -68 -36 -103 -6 l-32 27 0 121 c1 126 5
142 45 165 31 18 51 14 85 -15z m-280 -603 l0 -170 -25 0 -25 0 0 130 c0 123
-1 130 -20 130 -26 0 -27 36 -1 45 11 3 22 12 25 20 3 8 15 15 26 15 19 0 20
-6 20 -170z m268 150 c27 -26 30 -94 5 -122 -15 -17 -15 -20 5 -41 59 -63 -10
-183 -89 -155 -38 13 -48 27 -55 82 -6 40 -4 50 16 71 21 22 21 25 6 40 -10
11 -16 34 -16 65 0 39 4 52 22 64 31 22 80 20 106 -4z"/>
<path d="M663 2363 c-9 -3 -13 -36 -13 -114 0 -89 3 -111 15 -115 35 -14 46
15 43 115 -2 110 -10 129 -45 114z"/>
<path d="M642 1908 c-26 -26 -10 -78 24 -78 28 0 42 37 24 69 -12 24 -30 27
-48 9z"/>
<path d="M647 1763 c-14 -23 -11 -77 5 -86 37 -24 66 44 32 77 -17 17 -30 20
-37 9z"/>
</g>
</svg>
